<svg xmlns="http://www.w3.org/2000/svg" width="113" height="60" fill="none"><path fill="#83B3D3" fill-rule="evenodd" d="M37.95 23.95c.17-.55 0-.95-.8-.95h-2.62c-.67 0-.98.35-1.14.73 0 0-1.34 3.2-3.23 5.27-.61.6-.89.8-1.22.8-.17 0-.42-.2-.42-.74v-5.11c0-.66-.19-.95-.74-.95h-4.13c-.42 0-.67.3-.67.6 0 .61.95.76 1.05 2.5v3.8c0 .84-.16.99-.5.99-.88 0-3.05-3.21-4.33-6.89-.25-.71-.5-1-1.17-1H15.4c-.75 0-.9.35-.9.73 0 .68.89 4.07 4.14 8.55 2.17 3.06 5.23 4.72 8.01 4.72 1.67 0 1.88-.37 1.88-1v-2.32c0-.73.16-.88.68-.88.4 0 1.06.2 2.62 1.67C33.61 36.22 33.9 37 34.9 37h2.63c.75 0 1.13-.37.91-1.1-.24-.72-1.09-1.77-2.22-3.02-.6-.7-1.53-1.47-1.8-1.86-.4-.49-.28-.7 0-1.14 0 0 3.2-4.43 3.53-5.93Z" clip-rule="evenodd"/><path fill="#83B3D3" d="m65.29 22.1-15.95 6.15c-1.09.43-1.08 1.04-.2 1.31l4.1 1.28 9.47-5.98c.44-.27.85-.12.52.18l-7.68 6.92-.28 4.22c.41 0 .6-.19.83-.41l1.99-1.93 4.13 3.05c.77.42 1.31.2 1.5-.7l2.72-12.8c.28-1.12-.43-1.62-1.15-1.3ZM95.1 21.5H79.68c-1.86 0-3.17 1.6-3.17 3.4V35c0 1.9 1.31 3.5 3.17 3.5h15.66c1.64 0 3.17-1.6 3.17-3.4V24.9c-.22-1.8-1.53-3.4-3.4-3.4ZM84.17 34.04v-8.08L91.5 30l-7.34 4.04Z"/><rect width="112" height="59" x=".5" y=".5" stroke="#7B61FF" stroke-dasharray="10 5" rx="4.5"/></svg>