<svg xmlns="http://www.w3.org/2000/svg" width="308" height="124" fill="none"><path fill="#000" fill-rule="evenodd" d="M62 28.38 24.44 65.94l2.12 2.12L34 60.62V98h-4v3h65v-3h-5V60.62l7.44 7.44 2.12-2.12L90 56.38V29H76v13.38l-14-14Zm17 17 8 8V32h-8v13.38Zm8 12.24-25-25-25 25V98h50V57.62ZM54 70v24h16V70H54Zm3 21V73h10v18H57ZM41 70h3v4h-3v-4Zm9 0h-3v4h3v-4Zm-9 6h3v4h-3v-4Zm9 0h-3v4h3v-4Zm24-6h3v4h-3v-4Zm9 0h-3v4h3v-4Zm-9 6h3v4h-3v-4Zm9 0h-3v4h3v-4ZM57 56a5 5 0 1 1 10 0 5 5 0 0 1-10 0Zm5-8a8 8 0 1 0 0 16 8 8 0 0 0 0-16Z" clip-rule="evenodd"/><path fill="#000" d="M186.9 77.7H121.1c-2.3 0-4.1 1.9-4.1 4.3v3.5c0 2.4 1.9 4.3 4.1 4.3h.9v1.1c0 5.5 4.3 10.1 9.6 10.1h44.6c5.3 0 9.6-4.5 9.6-10.1v-1.1h.9c2.3 0 4.1-1.9 4.1-4.3V82a4 4 0 0 0-3.9-4.3ZM183 90.9c0 3.9-3 7-6.7 7h-44.7c-3.7 0-6.7-3.2-6.7-7v-1.1H183v1.1Zm5.1-5.4c0 .7-.6 1.3-1.2 1.3H121c-.7 0-1.2-.6-1.2-1.3V82c0-.7.6-1.3 1.2-1.3h65.8c.7 0 1.2.6 1.2 1.3.1 0 .1 3.5.1 3.5ZM132.6 69.4l5.4 4.1 5.3-4.1 5.3 4.1 5.3-4.1 5.4 4.1 5.3-4.1 5.3 4.1 5.4-4.1 5.3 4.1 6.2-4.7-1.7-2.5-4.5 3.4-5.3-4.1-5.4 4.1-5.3-4.1-5.3 4.1-5.4-4.1-5.3 4.1-5.3-4.1-5.3 4.1-5.4-4.1-5.3 4.1-4.5-3.4-1.7 2.5 6.2 4.7 5.3-4.1ZM125 62.5h60.8c0-.6.1-1.2.1-1.9v-1.2C185.2 43.7 171.2 31 154 31c-17.3 0-31.3 12.7-32 28.5v1.2c0 .6 0 1.2.1 1.8h2.9ZM154 34c15.6 0 28.4 11.3 29 25.5h-58c.6-14.1 13.4-25.5 29-25.5Z"/><path fill="#000" d="M154 48.3c1.05 0 1.9-.9 1.9-2s-.85-2-1.9-2c-1.05 0-1.9.9-1.9 2s.85 2 1.9 2ZM146.2 43.2c1.05 0 1.9-.9 1.9-2s-.85-2-1.9-2c-1.05 0-1.9.9-1.9 2s.85 2 1.9 2ZM161.7 43.2c1.05 0 1.9-.9 1.9-2s-.85-2-1.9-2c-1.05 0-1.9.9-1.9 2s.85 2 1.9 2ZM275.1 47.5h-24.8c13.8-6.9 14.9-11.3 14.4-13.7-1.2-4-5.7-7-10-5.4-5.6 2.1-7.1 10.4-8.6 16.4-2-6.1-3.8-13.8-8.2-17.7-1.3-1.1-3.1-2.3-5.8-2-4 .4-9.8 5.4-7.5 11 2.3 5.4 9.7 8.8 14.6 11.5h-22.3a2.9 2.9 0 0 0-2.9 2.9v11.3c0 1.6 1.3 2.9 2.9 2.9h.3V101H275V64.6h.1c1.6 0 2.9-1.3 2.9-2.9V50.4c0-1.6-1.3-2.9-2.9-2.9Zm-18.7-16.6c2.1-.3 5 1.3 5.3 3.2.4 2.8-3.4 5.3-5.1 6.4-2.5 1.7-4.9 2.6-7.3 4.1.9-3.7 2.5-13 7.1-13.7Zm-22.9 10c-2.2-1.5-6.5-4.4-6.4-7.8.1-3.6 5.7-6.6 8.8-3.9 3.9 3.4 5.7 11.1 7.1 16.6-3.2-1.5-6.3-2.8-9.5-4.9Zm6 57.1h-19.4V64.6h19.4V98Zm0-36.5H217v-11h22.5v11Zm10.2 0V98h-7.2V50.6h7.2v10.9ZM272 98h-19.4V64.6H272V98Zm2.9-36.5h-22.3v-11h22.3v11Z"/><rect width="307" height="123" x=".5" y=".5" stroke="#7B61FF" stroke-dasharray="10 5" rx="4.5"/></svg>